<svg width="17" height="20" viewBox="0 0 17 20" fill="none" xmlns="http://www.w3.org/2000/svg">
<g clip-path="url(#clip0)">
<path d="M0 12.9231C0 11.0256 0.523077 9.48718 1.36 8.30769C1.36 10.641 1.93538 11.4615 3.19077 11.4615C4.02769 11.4615 4.89077 10.8462 4.89077 9.79487C4.89077 8.84615 4.23692 7.12821 4.23692 5.28205C4.23692 3.4359 4.86462 1.46154 7.42769 0C6.85231 1.48718 6.61692 2.74359 6.61692 3.76923C6.61692 6.48718 8.29077 7.71795 9.78154 7.71795C10.9846 7.71795 12.24 6.94872 12.24 4.71795C13.0508 5.58974 13.4169 6.58974 13.4169 7.58974C13.4169 9.17949 12.5277 10.5897 12.5277 11.8718C12.5277 12.9231 13.3908 13.5385 14.2277 13.5385C15.7185 13.5385 16.1631 12.2308 16.1631 10.0769C16.6077 10.8205 17 12.2821 17 13.5385C17 17.2821 13.3908 20 9.36308 20C12.7631 18.7436 13.3908 17.0769 13.3908 15.2051C12.5538 16.6667 11.6908 16.8718 11.2723 16.8718C8.70923 16.8718 11.4815 12.0769 7.00923 8.74359C7.74154 10.2821 8.02923 11.6154 8.02923 12.6923C8.02923 15 6.74769 16.2564 5.51846 16.2564C4.47231 16.2564 3.42615 15.4359 3.00769 13.6923C3.00769 16.1282 3.74 18.4359 7.00923 20C1.90923 19.1795 0 16.0513 0 12.9231H0Z" fill="#FF0000"/>
</g>
<g clip-path="url(#clip1)">
<path d="M1.54547 14.0118C1.54547 12.4063 1.97344 11.1045 2.6582 10.1065C2.6582 12.0809 3.12897 12.7751 4.1561 12.7751C4.84086 12.7751 5.54701 12.2544 5.54701 11.3649C5.54701 10.5621 5.01204 9.10848 5.01204 7.54635C5.01204 5.98422 5.52561 4.31361 7.62267 3.07692C7.1519 4.3353 6.95932 5.39842 6.95932 6.26627C6.95932 8.56607 8.32883 9.60749 9.54855 9.60749C10.5329 9.60749 11.56 8.9566 11.56 7.06903C12.2234 7.8067 12.523 8.65286 12.523 9.49901C12.523 10.8442 11.7954 12.0375 11.7954 13.1223C11.7954 14.0118 12.5016 14.5325 13.1863 14.5325C14.406 14.5325 14.7698 13.426 14.7698 11.6035C15.1336 12.2327 15.4546 13.4694 15.4546 14.5325C15.4546 17.7002 12.5016 20 9.20617 20C11.988 18.9369 12.5016 17.5266 12.5016 15.9428C11.8168 17.1795 11.1106 17.3531 10.7683 17.3531C8.67121 17.3531 10.9395 13.2959 7.2803 10.4753C7.87946 11.7771 8.11484 12.9053 8.11484 13.8166C8.11484 15.7692 7.06631 16.8323 6.06058 16.8323C5.20463 16.8323 4.34869 16.1381 4.00631 14.6627C4.00631 16.7239 4.60547 18.6765 7.2803 20C3.10757 19.3057 1.54547 16.6588 1.54547 14.0118H1.54547Z" fill="#FF4D00"/>
</g>
<g clip-path="url(#clip2)">
<path d="M3.09088 15.1006C3.09088 13.787 3.42375 12.7219 3.95634 11.9053C3.95634 13.5207 4.32249 14.0888 5.12137 14.0888C5.65396 14.0888 6.20319 13.6627 6.20319 12.9349C6.20319 12.2781 5.78711 11.0888 5.78711 9.81065C5.78711 8.53255 6.18655 7.16568 7.81759 6.15385C7.45144 7.18343 7.30165 8.05325 7.30165 8.76331C7.30165 10.645 8.36683 11.497 9.3155 11.497C10.0811 11.497 10.88 10.9645 10.88 9.42012C11.3959 10.0237 11.6289 10.716 11.6289 11.4083C11.6289 12.5089 11.063 13.4852 11.063 14.3728C11.063 15.1006 11.6123 15.5266 12.1449 15.5266C13.0935 15.5266 13.3765 14.6213 13.3765 13.1302C13.6594 13.645 13.9091 14.6568 13.9091 15.5266C13.9091 18.1183 11.6123 20 9.0492 20C11.2128 19.1302 11.6123 17.9763 11.6123 16.6805C11.0797 17.6923 10.5305 17.8343 10.2642 17.8343C8.63312 17.8343 10.3973 14.5148 7.5513 12.2071C8.01731 13.2722 8.20039 14.1953 8.20039 14.9408C8.20039 16.5385 7.38487 17.4083 6.60263 17.4083C5.9369 17.4083 5.27116 16.8402 5.00487 15.6331C5.00487 17.3195 5.47088 18.9172 7.5513 20C4.30585 19.432 3.09088 17.2663 3.09088 15.1006H3.09088Z" fill="#FF7A00"/>
</g>
<defs>
<clipPath id="clip0">
<rect width="17" height="20" fill="white"/>
</clipPath>
<clipPath id="clip1">
<rect width="13.9091" height="16.9231" fill="white" transform="translate(1.54547 3.07692)"/>
</clipPath>
<clipPath id="clip2">
<rect width="10.8182" height="13.8462" fill="white" transform="translate(3.09088 6.15385)"/>
</clipPath>
</defs>
</svg>
